<?xml version="1.0" encoding="utf-8"?><svg viewBox="0 0 26 24" xmlns="http://www.w3.org/2000/svg" xmlns:xlink="http://www.w3.org/1999/xlink"><style>:root>svg{display:none}:root>svg:target{display:block}</style><svg viewBox="0 0 24 24" id="close" xmlns="http://www.w3.org/2000/svg"><path d="M4.222 2.808l16.97 16.97-1.414 1.415-16.97-16.97z"/><path d="M2.808 19.778l16.97-16.97 1.415 1.413L4.222 21.192z"/></svg><svg viewBox="0 0 24 24" id="error" xmlns="http://www.w3.org/2000/svg"><path fill-rule="evenodd" clip-rule="evenodd" d="M12 24c6.627 0 12-5.373 12-12S18.627 0 12 0 0 5.373 0 12s5.373 12 12 12zm-4.354-8.354a.5.5 0 00.708.708L12 12.707l3.646 3.647a.5.5 0 00.708-.708L12.707 12l3.647-3.646a.5.5 0 00-.708-.708L12 11.293 8.354 7.646a.5.5 0 10-.708.708L11.293 12l-3.647 3.646z"/></svg><svg viewBox="0 0 22 20" id="heart" xmlns="http://www.w3.org/2000/svg"><path fill-rule="evenodd" clip-rule="evenodd" d="M13.653.955a6 6 0 016.54 1.301 5.998 5.998 0 010 8.487l-8.84 8.84a.5.5 0 01-.707 0l-8.84-8.84a6.001 6.001 0 118.488-8.487l.706.707-.354.353.354.354.354-.354L11 2.963l.706-.707A6 6 0 0113.653.955zm2.297.543a5 5 0 00-3.536 1.465l-1.06 1.06a.5.5 0 01-.708 0l-1.06-1.06a5.001 5.001 0 10-7.072 7.073L11 18.523l8.486-8.487a5 5 0 00-1.622-8.157 5 5 0 00-1.914-.38z"/></svg><svg viewBox="0 0 20 20" id="search" xmlns="http://www.w3.org/2000/svg"><path fill-rule="evenodd" clip-rule="evenodd" d="M1.5 9a7.5 7.5 0 1112.87 5.236.499.499 0 00-.135.134A7.5 7.5 0 011.5 9zm13.146 6.354a8.5 8.5 0 11.707-.707l4 4a.5.5 0 11-.707.707l-4-4z"/></svg><svg viewBox="0 0 24 23" id="shopping-cart" xmlns="http://www.w3.org/2000/svg"><path fill-rule="evenodd" clip-rule="evenodd" d="M1 .5a.5.5 0 000 1h3.59l.915 4.57c.003.02.006.038.011.057l1.674 8.36A2.5 2.5 0 009.685 16.5h9.71a2.5 2.5 0 002.495-2.013l.001-.003 1.6-8.39A.5.5 0 0023 5.5H6.41L5.49.902A.5.5 0 005 .5H1zm7.17 13.792L6.61 6.5h15.786l-1.486 7.793v.001a1.5 1.5 0 01-1.5 1.206H9.67a1.5 1.5 0 01-1.5-1.207v-.001zM9 20.5a.5.5 0 100 1 .5.5 0 000-1zm-1.5.5a1.5 1.5 0 113 0 1.5 1.5 0 01-3 0zm12.5-.5a.5.5 0 100 1 .5.5 0 000-1zm-1.5.5a1.5 1.5 0 113 0 1.5 1.5 0 01-3 0z"/></svg><svg viewBox="0 0 18 20" id="user" xmlns="http://www.w3.org/2000/svg"><path fill-rule="evenodd" clip-rule="evenodd" d="M5.5 5a3.5 3.5 0 117 0 3.5 3.5 0 01-7 0zM9 .5a4.5 4.5 0 100 9 4.5 4.5 0 000-9zm-4 12A4.5 4.5 0 00.5 17v2a.5.5 0 001 0v-2A3.5 3.5 0 015 13.5h8a3.5 3.5 0 013.5 3.5v2a.5.5 0 001 0v-2a4.5 4.5 0 00-4.5-4.5H5z"/></svg><svg viewBox="0 0 24 24" id="valid" xmlns="http://www.w3.org/2000/svg"><path fill-rule="evenodd" clip-rule="evenodd" d="M12 24c6.627 0 12-5.373 12-12S18.627 0 12 0 0 5.373 0 12s5.373 12 12 12zM7.387 11.239a.5.5 0 00-.774.633l3.636 4.445.393.48.386-.486 6.363-8a.5.5 0 10-.782-.622l-5.978 7.515-3.244-3.965z"/></svg><svg viewBox="0 0 26 24" id="whish" xmlns="http://www.w3.org/2000/svg"><path d="M23.313 3.378a6.417 6.417 0 00-9.076 0L13 4.615l-1.237-1.237a6.418 6.418 0 10-9.076 9.077l1.236 1.237L13 22.768l9.077-9.076 1.236-1.237a6.417 6.417 0 000-9.077v0z" stroke="#181818" stroke-linecap="round" stroke-linejoin="round"/></svg></svg>