<svg width="22" height="20" viewBox="0 0 22 20" fill="none" xmlns="http://www.w3.org/2000/svg">
<path fill-rule="evenodd" clip-rule="evenodd" d="M13.6532 0.955039C14.3814 0.653335 15.1618 0.498047 15.95 0.498047C16.7382 0.498047 17.5186 0.653335 18.2467 0.955039C18.9749 1.25674 19.6364 1.69895 20.1936 2.2564C20.1937 2.25646 20.1936 2.25635 20.1936 2.2564C20.751 2.81356 21.1932 3.47506 21.4948 4.20312C21.7965 4.93126 21.9518 5.7117 21.9518 6.49987C21.9518 7.28804 21.7965 8.06849 21.4948 8.79662C21.1931 9.52472 20.751 10.1863 20.1936 10.7434L11.3536 19.5834C11.1583 19.7787 10.8417 19.7787 10.6464 19.5834L1.80644 10.7434C0.680983 9.61797 0.0487061 8.09151 0.0487061 6.49987C0.0487061 4.90823 0.680983 3.38178 1.80644 2.25632C2.9319 1.13086 4.45836 0.498582 6.05 0.498582C7.64164 0.498582 9.16809 1.13086 10.2936 2.25632L11 2.96277L10.6464 3.31632L11 3.66987L11.3536 3.31632L11 2.96277L11.7064 2.2564C12.2635 1.69899 12.9251 1.25673 13.6532 0.955039ZM15.95 1.49805C15.2932 1.49805 14.6428 1.62745 14.036 1.87887C13.4293 2.13029 12.878 2.4988 12.4136 2.96334L11.3536 4.02343C11.1583 4.21869 10.8417 4.21869 10.6464 4.02343L9.58644 2.96343C8.64852 2.0255 7.37642 1.49858 6.05 1.49858C4.72357 1.49858 3.45147 2.0255 2.51355 2.96343C1.57563 3.90135 1.04871 5.17345 1.04871 6.49987C1.04871 7.8263 1.57563 9.0984 2.51355 10.0363L11 18.5228L19.4864 10.0363C19.951 9.572 20.3196 9.02061 20.571 8.41383C20.8224 7.80705 20.9518 7.15668 20.9518 6.49987C20.9518 5.84307 20.8224 5.19269 20.571 4.58591C20.3196 3.97913 19.9511 3.42783 19.4865 2.96351C19.0222 2.49897 18.4707 2.13029 17.864 1.87887C17.2572 1.62745 16.6068 1.49805 15.95 1.49805Z" fill="white"/>
</svg>
