<svg width="20" height="20" viewBox="0 0 20 20" fill="none" xmlns="http://www.w3.org/2000/svg">
<path fill-rule="evenodd" clip-rule="evenodd" d="M1.5 9C1.5 4.85786 4.85786 1.5 9 1.5C13.1421 1.5 16.5 4.85786 16.5 9C16.5 11.0368 15.6881 12.8839 14.3703 14.2355C14.3442 14.2531 14.3195 14.2734 14.2964 14.2965C14.2734 14.3195 14.2531 14.3443 14.2354 14.3703C12.8839 15.6881 11.0368 16.5 9 16.5C4.85786 16.5 1.5 13.1421 1.5 9ZM14.6465 15.3536C13.1451 16.6889 11.1673 17.5 9 17.5C4.30558 17.5 0.5 13.6944 0.5 9C0.5 4.30558 4.30558 0.5 9 0.5C13.6944 0.5 17.5 4.30558 17.5 9C17.5 11.1673 16.6889 13.1451 15.3536 14.6465L19.3535 18.6465C19.5488 18.8417 19.5488 19.1583 19.3535 19.3536C19.1583 19.5488 18.8417 19.5488 18.6464 19.3536L14.6465 15.3536Z" fill="white"/>
</svg>
