<svg width="24" height="23" viewBox="0 0 24 23" fill="none" xmlns="http://www.w3.org/2000/svg">
<path fill-rule="evenodd" clip-rule="evenodd" d="M1 0.5C0.723858 0.5 0.5 0.723858 0.5 1C0.5 1.27614 0.723858 1.5 1 1.5H4.59016L5.50491 6.07035C5.5076 6.08948 5.51138 6.10826 5.51618 6.12664L7.18958 14.4874L7.18966 14.4878C7.30403 15.0631 7.61707 15.5799 8.07401 15.9478C8.52975 16.3146 9.09968 16.51 9.68454 16.5H19.3955C19.9803 16.51 20.5503 16.3146 21.006 15.9478C21.463 15.5799 21.7761 15.0629 21.8904 14.4874L21.8911 14.4837L23.4911 6.09366C23.5191 5.94729 23.4802 5.79609 23.3852 5.68128C23.2903 5.56646 23.149 5.5 23 5.5H6.41059L5.49028 0.901872C5.44351 0.668193 5.23831 0.5 5 0.5H1ZM8.17028 14.2919L6.61074 6.5H22.3956L20.9096 14.2926L20.9092 14.2943C20.8404 14.6389 20.6527 14.9484 20.3789 15.1688C20.1047 15.3896 19.7616 15.5068 19.4096 15.5001L19.4096 15.5H19.4H9.68V15.4999L9.67042 15.5001C9.31844 15.5068 8.97531 15.3896 8.70108 15.1688C8.42685 14.9481 8.239 14.6379 8.17042 14.2926L8.17028 14.2919ZM9 20.5C8.72386 20.5 8.5 20.7239 8.5 21C8.5 21.2761 8.72386 21.5 9 21.5C9.27614 21.5 9.5 21.2761 9.5 21C9.5 20.7239 9.27614 20.5 9 20.5ZM7.5 21C7.5 20.1716 8.17157 19.5 9 19.5C9.82843 19.5 10.5 20.1716 10.5 21C10.5 21.8284 9.82843 22.5 9 22.5C8.17157 22.5 7.5 21.8284 7.5 21ZM20 20.5C19.7239 20.5 19.5 20.7239 19.5 21C19.5 21.2761 19.7239 21.5 20 21.5C20.2761 21.5 20.5 21.2761 20.5 21C20.5 20.7239 20.2761 20.5 20 20.5ZM18.5 21C18.5 20.1716 19.1716 19.5 20 19.5C20.8284 19.5 21.5 20.1716 21.5 21C21.5 21.8284 20.8284 22.5 20 22.5C19.1716 22.5 18.5 21.8284 18.5 21Z" fill="white"/>
</svg>
