<svg width="26" height="24" viewBox="0 0 26 24" fill="none" xmlns="http://www.w3.org/2000/svg">
<path d="M23.3133 3.37833C22.7174 2.78217 22.0099 2.30926 21.2312 1.9866C20.4525 1.66394 19.6179 1.49787 18.775 1.49787C17.9321 1.49787 17.0975 1.66394 16.3187 1.9866C15.54 2.30926 14.8325 2.78217 14.2367 3.37833L13 4.615L11.7633 3.37833C10.5597 2.17469 8.9272 1.4985 7.225 1.4985C5.52279 1.4985 3.8903 2.17469 2.68666 3.37833C1.48302 4.58198 0.806824 6.21446 0.806824 7.91667C0.806824 9.61887 1.48302 11.2514 2.68666 12.455L3.92333 13.6917L13 22.7683L22.0767 13.6917L23.3133 12.455C23.9095 11.8591 24.3824 11.1516 24.7051 10.3729C25.0277 9.59421 25.1938 8.75957 25.1938 7.91667C25.1938 7.07377 25.0277 6.23912 24.7051 5.46042C24.3824 4.68172 23.9095 3.97422 23.3133 3.37833V3.37833Z" stroke="#181818" stroke-linecap="round" stroke-linejoin="round"/>
</svg>
